<?xml version="1.0" encoding="UTF-8"?>
<svg version="1.1" xmlns="http://www.w3.org/2000/svg" width="512" height="512">
<path d="M0 0 C0.89498199 -0.02251831 1.78996399 -0.04503662 2.71206665 -0.0682373 C6.82195555 -0.13935401 10.93166331 -0.19680363 15.04199219 -0.23535156 C17.20497838 -0.26191512 19.36783897 -0.30279205 21.53027344 -0.35839844 C24.65530393 -0.43780377 27.77791507 -0.4707095 30.90380859 -0.49414062 C31.86243805 -0.52713257 32.8210675 -0.56012451 33.80874634 -0.59411621 C40.01237634 -0.57579524 43.35951301 0.64454217 47.76678467 5.04290771 C50.54916309 8.22031792 53.16682631 11.49902797 55.73370361 14.85246277 C76.02717745 41.39270888 76.02717745 41.39270888 105.3691988 54.71844101 C120.52121333 56.49999658 136.11548556 55.57230638 151.25213623 53.99421692 C164.31973999 52.64532888 175.30385064 54.131166 186.08740234 61.97851562 C195.286041 69.58006176 200.10514408 78.86113363 201.53890991 90.6895752 C201.7718152 94.95760437 201.35315033 99.17035815 201.02409363 103.42634583 C197.24364799 139.87320351 197.24364799 139.87320351 210.50927734 172.23632812 C217.10190179 179.41688321 224.68995113 185.48579638 232.508255 191.27728271 C241.67447342 198.15954929 246.30974398 207.03649356 248.67724609 218.22460938 C249.60726605 224.86752718 249.82291066 231.48014945 249.81095886 238.17852783 C249.81322442 239.12866186 249.81548998 240.07879589 249.81782418 241.05772185 C249.82411045 244.21394963 249.8233383 247.37013388 249.82250977 250.52636719 C249.82550461 252.80066482 249.82890789 255.07496195 249.83268738 257.34925842 C249.84149836 263.50850347 249.84386427 269.66773462 249.84450316 275.82698536 C249.8452153 279.68020839 249.84735272 283.53342792 249.85000038 287.38665009 C249.85876771 300.15029652 249.86342129 312.91393143 249.86266991 325.67758015 C249.86260997 326.70753686 249.86260997 326.70753686 249.86254883 327.75830078 C249.86250795 328.44578666 249.86246707 329.13327254 249.86242495 329.84159133 C249.86201872 340.97657056 249.87158493 352.11151594 249.88568719 363.24648538 C249.90008666 374.7074596 249.90677272 386.16841049 249.90609342 397.62939525 C249.90583912 404.05274266 249.90865263 410.47605173 249.91927147 416.89939117 C249.92899165 422.94378455 249.92900483 428.98810322 249.92175484 435.03249931 C249.92071387 437.24228208 249.92304268 439.45206959 249.9291153 441.66184425 C249.98444084 463.20091619 249.33241052 481.93799226 233.64990234 498.34570312 C221.78119666 509.69931128 209.12238891 512.5257621 193.28417969 512.53100586 C191.82329386 512.53863518 190.36241203 512.547064 188.90153503 512.55622864 C184.94925266 512.57809363 180.9970476 512.58696073 177.04471159 512.59205508 C174.57402481 512.59570558 172.10335809 512.60194896 169.63267899 512.60905647 C161.00983037 512.63351495 152.38704169 512.64659683 143.76416016 512.65014648 C135.73019732 512.65378769 127.6966151 512.68373387 119.66276872 512.72555107 C112.75813468 512.76022928 105.85362709 512.77569443 98.94890654 512.77639252 C94.82782204 512.77718563 90.70712642 512.78594105 86.58613205 512.81439018 C82.71338172 512.84053172 78.84134407 512.84279868 74.96854591 512.82673454 C73.54834885 512.82491739 72.12811111 512.83163507 70.70800209 512.84755325 C68.76811725 512.86797135 66.82796417 512.85448721 64.88803101 512.83934021 C63.26041619 512.8423572 63.26041619 512.8423572 61.59992027 512.84543514 C57.69369448 512.01568626 56.17705599 510.26365871 53.67724609 507.22460938 C53.01318359 504.72460938 53.01318359 504.72460938 53.05224609 502.22460938 C53.03935547 501.39960938 53.02646484 500.57460938 53.01318359 499.72460938 C53.74070247 496.98571478 54.71960232 495.24998769 56.78069496 493.29164696 C61.23512705 490.78549441 66.88620506 491.5508244 71.84594727 491.59692383 C73.19991032 491.59174264 74.55386642 491.58434079 75.9078064 491.57489014 C78.81955053 491.55933873 81.73071892 491.55948933 84.64247704 491.57189369 C89.25387972 491.59146713 93.86477284 491.57621628 98.47615051 491.55644226 C105.77752396 491.52929433 113.07868947 491.52579955 120.38010341 491.5322153 C133.43482236 491.54314247 146.48947693 491.51841561 159.54413205 491.47846764 C164.12009679 491.46545361 168.69587052 491.46410428 173.27184427 491.47260058 C176.13052598 491.47624849 178.98915979 491.47189857 181.84783554 491.46575928 C183.78771843 491.46417177 185.72760162 491.47257277 187.66746521 491.48136902 C194.57943987 491.45822691 200.96587482 490.91677507 207.67724609 489.22460938 C207.89725207 487.02544723 207.89725207 487.02544723 205.89686584 485.19813347 C205.05619064 484.35930185 204.21551544 483.52047024 203.34936523 482.65621948 C202.88384027 482.18898566 202.4183153 481.72175184 201.93868351 481.24035943 C200.3679794 479.66634496 198.79020311 478.09961319 197.21240234 476.53271484 C196.08883455 475.40971083 194.96570625 474.28626695 193.84298706 473.16241455 C190.78556445 470.10441613 187.72199728 467.05264011 184.65732956 464.00190496 C181.45866927 460.81571411 178.26564018 457.62389045 175.07202148 454.43264771 C169.01988596 448.38673812 162.96266848 442.34594647 156.90363026 436.30695546 C150.00745139 429.43310101 143.11692424 422.55359316 136.22687721 415.67359328 C122.04996771 401.517611 107.86593926 387.36878009 93.67724609 373.22460938 C89.94890391 376.37237634 86.26169628 379.50273442 82.86010742 383.00756836 C82.19864212 383.68524765 81.53717682 384.36292694 80.85566711 385.06114197 C80.16385849 385.77379715 79.47204987 386.48645233 78.75927734 387.22070312 C77.2423162 388.76492925 75.7247178 390.30852958 74.20654297 391.8515625 C71.84860962 394.25257654 69.49470054 396.6570018 67.15161133 399.07250977 C53.24442061 413.38946723 40.46994879 424.59123983 19.61474609 425.47460938 C-7.20486147 425.0184936 -22.61312882 406.10070751 -40.07275391 388.53710938 C-41.55949666 387.04533726 -43.04647434 385.55379924 -44.53369141 384.0625 C-48.13275314 380.45255638 -51.72864336 376.83948221 -55.32275391 373.22460938 C-61.62395989 378.42637086 -67.36024687 384.12721223 -73.12329102 389.91162109 C-74.19798648 390.98659908 -75.27290307 392.06135603 -76.34802246 393.13591003 C-79.2485185 396.03612062 -82.14593336 398.93939147 -85.04278255 401.84324408 C-88.07722248 404.8839595 -91.11451785 407.92182003 -94.15150452 410.95999146 C-99.89420975 416.70579767 -105.63436233 422.45414696 -111.37359005 428.20342648 C-117.91094215 434.75197808 -124.45115336 441.29767103 -130.99159992 447.84313178 C-144.43848966 461.30045798 -157.88180545 474.76134924 -171.32275391 488.22460938 C-163.73014011 492.23930209 -155.22697748 491.3644757 -146.84765625 491.35058594 C-145.48529502 491.35198256 -144.12293423 491.35388307 -142.76057434 491.35624695 C-139.83812486 491.36072551 -136.91568936 491.36259962 -133.99323654 491.36270905 C-129.37058738 491.36385377 -124.74801726 491.37672217 -120.12539673 491.39227295 C-119.34382906 491.3948458 -118.5622614 491.39741866 -117.75700986 491.40006948 C-116.15959797 491.40533525 -114.56218614 491.41062073 -112.96477437 491.4159255 C-102.21071549 491.45099599 -91.45675764 491.47758182 -80.70263672 491.47509766 C-73.43633292 491.47350946 -66.1703013 491.48952853 -58.9040848 491.52580428 C-55.06247682 491.54425979 -51.22132339 491.55361026 -47.37968063 491.54132843 C-43.76949221 491.52989623 -40.16011921 491.54158312 -36.55003929 491.57096291 C-34.59611088 491.5807684 -32.64210728 491.56583359 -30.68821716 491.55015564 C-21.13790138 491.66350186 -21.13790138 491.66350186 -18.03823853 494.60858154 C-16.188283 497.42967075 -15.64547231 498.87858692 -15.69775391 502.22460938 C-15.68486328 503.04960937 -15.67197266 503.87460937 -15.65869141 504.72460938 C-16.38216091 507.44825926 -17.31884186 509.20832694 -19.37215996 511.15730095 C-24.10818221 513.74871494 -30.11362642 512.90292246 -35.37768555 512.85571289 C-36.82692337 512.86085364 -38.27615495 512.8681361 -39.72537231 512.87739563 C-43.65781019 512.8959101 -47.58956991 512.88296665 -51.52197957 512.86330533 C-55.64702063 512.84689571 -59.77201948 512.85573596 -63.89707947 512.86082458 C-70.83164254 512.86534653 -77.76593602 512.84947841 -84.70043945 512.8215332 C-92.69330833 512.78956914 -100.68568863 512.78946228 -108.67859179 512.80674797 C-116.38705639 512.8226785 -124.09534361 512.81583204 -131.80380058 512.79881096 C-135.07345804 512.79197623 -138.34297178 512.79293613 -141.61262703 512.80035591 C-145.47633595 512.8080836 -149.33949759 512.79568433 -153.20311356 512.768507 C-154.61227356 512.76168598 -156.0214853 512.76145672 -157.43064308 512.76872253 C-173.19969105 512.84058695 -185.91504747 508.32048783 -197.57275391 497.53710938 C-210.07891727 484.2605458 -212.48762564 468.73370996 -212.45646667 451.27069092 C-212.45873223 450.32055689 -212.46099779 449.37042286 -212.463332 448.3914969 C-212.46961827 445.23526912 -212.46884611 442.07908487 -212.46801758 438.92285156 C-212.47101242 436.64855393 -212.4744157 434.3742568 -212.47819519 432.09996033 C-212.48700617 425.94071528 -212.48937208 419.78148413 -212.49001098 413.62223339 C-212.49072311 409.76901036 -212.49286053 405.91579083 -212.49550819 402.06256866 C-212.50427552 389.29892223 -212.5089291 376.53528732 -212.50817772 363.7716386 C-212.50813776 363.08500079 -212.50809781 362.39836298 -212.50805664 361.69091797 C-212.50801576 361.00343209 -212.50797488 360.31594621 -212.50793276 359.60762742 C-212.50752653 348.47264819 -212.51709274 337.33770281 -212.53119501 326.20273337 C-212.54559447 314.74175915 -212.55228053 303.28080826 -212.55160123 291.8198235 C-212.55134693 285.39647609 -212.55416044 278.97316702 -212.56477928 272.54982758 C-212.57449946 266.5054342 -212.57451264 260.46111553 -212.56726265 254.41671944 C-212.56622168 252.20693667 -212.5685505 249.99714916 -212.57462311 247.7873745 C-212.67698072 207.93800509 -212.67698072 207.93800509 -198.32275391 193.22460938 C-196.45811321 191.76749292 -194.54628037 190.39618342 -192.61645508 189.02667236 C-180.43578917 180.32192069 -166.75043935 170.00086013 -164.01591873 154.40621185 C-161.70171868 137.82391462 -162.66350136 120.60255634 -163.85948181 103.95606995 C-164.8533305 89.56412938 -162.99479381 77.80059807 -153.63525391 66.47460938 C-145.76681181 58.08655317 -135.81046749 53.70641142 -124.32275391 53.22460938 C-121.03479683 53.47480256 -117.7775863 53.86443894 -114.50408936 54.26077271 C-79.15073209 58.4563726 -79.15073209 58.4563726 -47.26779461 45.69573784 C-32.39261341 33.54200223 -19.79162226 18.39664454 -8.04856873 3.27429199 C-5.49108337 0.23686688 -3.8171737 0.09144799 0 0 Z M-27.32275391 52.22460938 C-27.32275391 52.55460937 -27.32275391 52.88460937 -27.32275391 53.22460938 C3.03724609 53.22460938 33.39724609 53.22460938 64.67724609 53.22460938 C62.69724609 50.91460937 60.71724609 48.60460937 58.67724609 46.22460938 C57.37859619 44.64981812 57.37859619 44.64981812 56.05371094 43.04321289 C42.02924843 25.8218898 42.02924843 25.8218898 22.46582031 16.78662109 C0.56681895 15.58689037 -14.69085501 36.7662427 -27.32275391 52.22460938 Z M-139.32275391 82.22460938 C-141.79720134 86.23492074 -142.60829594 89.62213394 -143.32275391 94.22460938 C-143.67936065 96.18436382 -144.03806785 98.14373686 -144.39854431 100.1027832 C-148.31926075 122.03024163 -150.80210335 143.99938272 -152.26025391 166.22460938 C-152.32037722 167.11653378 -152.38050053 168.00845819 -152.44244576 168.9274106 C-155.48788615 215.50751242 -150.16229631 253.42269386 -118.96219808 289.66176188 C-104.57382253 306.01388245 -89.07414255 321.15435013 -73.07275391 335.91210938 C-72.23609869 336.68653633 -71.39944346 337.46096329 -70.53743505 338.25885773 C-52.72605165 354.73115094 -34.52787731 370.73563647 -15.72021484 386.06323242 C-15.06696885 386.60009296 -14.41372286 387.13695351 -13.74068153 387.69008255 C-3.38519559 396.16637885 7.55369334 405.0554066 21.67724609 404.22460938 C27.53758953 403.43618592 31.84440819 401.99755271 36.49705505 398.32614136 C37.70058782 397.37712259 37.70058782 397.37712259 38.92843437 396.40893173 C39.83554224 395.68810535 40.74265011 394.96727898 41.67724609 394.22460938 C42.68028337 393.43218967 43.68332066 392.63976997 44.71675301 391.82333755 C67.8159154 373.52668474 90.05218712 354.29595226 111.73974609 334.34960938 C112.55968536 333.59742488 113.37962462 332.84524039 114.22441053 332.07026243 C155.20527548 294.38570026 187.93658428 259.89671157 190.38028651 202.08854556 C190.75898266 190.20692888 190.2643541 178.39277082 189.48974609 166.53710938 C189.43307597 165.64173619 189.37640584 164.74636301 189.31801844 163.82385731 C188.75136903 119.67221857 188.75136903 119.67221857 174.67724609 80.22460938 C168.91984521 75.75870094 163.91224772 74.10372547 156.62057877 74.09318161 C155.61992268 74.08934047 154.61926659 74.08549932 153.58828759 74.08154178 C151.9501257 74.0828415 151.9501257 74.0828415 150.27886963 74.08416748 C149.11305162 74.08119636 147.94723361 74.07822524 146.74608779 74.07516408 C143.51390142 74.06799271 140.28174746 74.06530546 137.04955435 74.06456661 C133.56204224 74.06271311 130.07454159 74.05516431 126.58703613 74.0484314 C118.96300571 74.03485985 111.33898056 74.02882527 103.71494007 74.02442074 C98.95304312 74.02165646 94.1911482 74.01741879 89.42925262 74.01291656 C76.24069979 74.00072571 63.05214858 73.99042586 49.86359024 73.98704147 C49.01979309 73.98682191 48.17599593 73.98660234 47.30662917 73.98637612 C46.46083368 73.98615784 45.61503818 73.98593957 44.74361253 73.98571467 C43.02975861 73.98527121 41.3159047 73.98482465 39.60205078 73.984375 C38.75192326 73.98415357 37.90179573 73.98393214 37.02590677 73.983704 C23.25211241 73.97975633 9.47837095 73.96230244 -4.29540297 73.93901548 C-18.44223208 73.91529116 -32.58903464 73.90283914 -46.73588395 73.90167356 C-54.67661055 73.90075743 -62.61726819 73.89502086 -70.55797577 73.87685394 C-77.31979846 73.86143841 -84.08153086 73.85634107 -90.84336779 73.86459205 C-94.29158928 73.86849335 -97.73962904 73.86759455 -101.18782806 73.8535347 C-104.93085597 73.8408431 -108.67341822 73.8466775 -112.41644287 73.8571167 C-114.04122043 73.84503209 -114.04122043 73.84503209 -115.69882178 73.83270335 C-125.01837614 73.89344432 -132.66436255 75.40768489 -139.32275391 82.22460938 Z M-174.82275391 199.47460938 C-176.16273438 200.78365234 -176.16273438 200.78365234 -177.52978516 202.11914062 C-178.37927734 202.96347656 -179.22876953 203.8078125 -180.10400391 204.67773438 C-181.2805957 205.84030762 -181.2805957 205.84030762 -182.48095703 207.02636719 C-184.86030767 209.7815714 -184.86030767 209.7815714 -185.32275391 213.22460938 C-183.60388248 215.65571239 -183.60388248 215.65571239 -181.08056641 217.99023438 C-180.17951172 218.8796875 -179.27845703 219.76914063 -178.35009766 220.68554688 C-177.38269204 221.61527839 -176.41524358 222.54496533 -175.44775391 223.47460938 C-174.48703741 224.41882316 -173.52738769 225.36412368 -172.56884766 226.31054688 C-168.90196049 230.67885894 -168.90196049 230.67885894 -164.32275391 233.22460938 C-164.32275391 219.03460938 -164.32275391 204.84460938 -164.32275391 190.22460938 C-167.60255403 190.22460938 -172.587284 197.25204262 -174.82275391 199.47460938 Z M201.67724609 190.22460938 C201.67724609 204.41460937 201.67724609 218.60460937 201.67724609 233.22460938 C207.20885283 228.52583341 207.20885283 228.52583341 212.42333984 223.57617188 C213.33696289 222.65771484 213.33696289 222.65771484 214.26904297 221.72070312 C214.878125 221.10324219 215.48720703 220.48578125 216.11474609 219.84960938 C216.75089844 219.20894531 217.38705078 218.56828125 218.04248047 217.90820312 C219.58974941 216.34930058 221.13461101 214.78809521 222.67724609 213.22460938 C221.32425378 209.18072982 219.60309841 206.78401006 216.57958984 203.79882812 C215.37786133 202.60483398 215.37786133 202.60483398 214.15185547 201.38671875 C213.31460937 200.57009766 212.47736328 199.75347656 211.61474609 198.91210938 C210.77363281 198.07615234 209.93251953 197.24019531 209.06591797 196.37890625 C205.80151923 192.44816232 205.80151923 192.44816232 201.67724609 190.22460938 Z M-191.32275391 237.22460938 C-191.369492 266.25786731 -191.40475164 295.29111959 -191.42637825 324.32440758 C-191.42841791 327.00907774 -191.43050055 329.69374787 -191.43261719 332.37841797 C-191.43314181 333.04569257 -191.43366643 333.71296718 -191.43420695 334.40046223 C-191.44290019 345.19281711 -191.4586642 355.9851506 -191.4770595 366.77749281 C-191.49578864 377.85844046 -191.50672738 388.93937941 -191.5109309 400.02034247 C-191.51353626 406.24139034 -191.51965203 412.46238976 -191.53421402 418.68342209 C-191.54781652 424.54216914 -191.55197112 430.40084788 -191.54896927 436.25960922 C-191.54951823 438.40656404 -191.55347972 440.55352121 -191.56116486 442.70046234 C-191.57116783 445.63977719 -191.56870329 448.57883676 -191.56326294 451.51815796 C-191.56908862 452.36060196 -191.57491431 453.20304597 -191.58091652 454.07101858 C-191.71707381 464.44794367 -191.71707381 464.44794367 -187.32275391 473.22460938 C-149.04275391 434.94460938 -110.76275391 396.66460937 -71.32275391 357.22460938 C-74.95464593 352.98740202 -78.41499068 349.00717378 -82.32746887 345.09291077 C-82.79333127 344.62548838 -83.25919367 344.15806599 -83.73917311 343.67647928 C-85.27746186 342.13424945 -86.81924261 340.5955622 -88.36108398 339.05688477 C-89.47383947 337.94277229 -90.58638254 336.82844761 -91.69873047 335.71392822 C-94.7022166 332.70590642 -97.70882896 329.70102813 -100.71617341 326.69686437 C-103.86556206 323.55001557 -107.01250109 320.40071858 -110.15983582 317.2518158 C-115.43784998 311.97198629 -120.7179608 306.69426044 -125.99926758 301.41772461 C-132.11221775 295.31023277 -138.2215343 289.19912395 -144.32900888 283.0861569 C-149.57482349 277.83581321 -154.82257307 272.58740951 -160.07196349 267.34064096 C-163.20677271 264.20739347 -166.34089578 261.07346768 -169.47327614 257.93779182 C-172.4119487 254.99624297 -175.35303297 252.05712746 -178.2960434 249.11991882 C-179.37852874 248.03876165 -180.46015307 246.95674166 -181.54087639 245.87382317 C-183.00928141 244.40270932 -184.48069301 242.93467264 -185.95295715 241.46742249 C-187.18983638 240.23110879 -187.18983638 240.23110879 -188.45170307 238.96981907 C-190.01819398 237.11092812 -190.01819398 237.11092812 -191.32275391 237.22460938 Z M225.69573116 239.08307648 C224.81910604 239.9606234 223.94248091 240.83817032 223.03929138 241.74230957 C222.55249423 242.2282523 222.06569707 242.71419503 221.56414849 243.2148633 C219.92033879 244.85701524 218.28014762 246.50273555 216.63989258 248.1484375 C215.46756087 249.32105105 214.29500938 250.49344491 213.12225342 251.66563416 C209.92802212 254.85957733 206.73689373 258.05660481 203.54629016 261.25417137 C200.21550498 264.59118766 196.88190708 267.9253916 193.54859924 271.2598877 C187.23196228 277.5796387 180.91787978 283.90193556 174.60469824 290.22513819 C167.41935148 297.42164385 160.23118113 304.61532632 153.0427655 311.80876637 C138.25110237 326.61089552 123.46301053 341.4165882 108.67724609 356.22460938 C113.90367592 362.55842198 119.64508576 368.32723786 125.45605469 374.11694336 C126.54088476 375.20149092 127.62549381 376.28625959 128.7098999 377.37123108 C131.63696908 380.29858574 134.56709885 383.22285909 137.49780989 386.14656711 C140.56655231 389.20903448 143.63244026 392.27435687 146.69863892 395.33937073 C152.49756913 401.13519983 158.29904247 406.9284763 164.10144579 412.72082812 C170.71045555 419.31863876 177.31660699 425.91930817 183.92252612 432.52021301 C197.50426657 446.09151671 211.08957209 459.65924651 224.67724609 473.22460938 C229.23838507 468.6634704 228.90474693 460.23241694 228.93540871 454.07101858 C228.92958303 453.22857457 228.92375735 452.38613057 228.91775513 451.51815796 C228.91946398 450.59489798 228.92117283 449.671638 228.92293346 448.72040045 C228.92620301 445.6558041 228.91526676 442.59143133 228.90429688 439.52685547 C228.90373221 437.31851202 228.9040504 435.11016819 228.90518188 432.90182495 C228.90575425 426.9273679 228.89401874 420.95299162 228.88003397 414.9785533 C228.86750722 408.72721233 228.86635458 402.4758694 228.86398315 396.22451782 C228.85847896 385.73869529 228.84599782 375.25289765 228.828125 364.76708984 C228.80974232 353.97086738 228.79559753 343.17465294 228.78710938 332.37841797 C228.78658393 331.71195819 228.78605848 331.04549842 228.78551711 330.35884289 C228.78290687 327.01511733 228.78038401 323.6713917 228.7778933 320.32766604 C228.75700433 292.62662661 228.72183952 264.92562007 228.67724609 237.22460938 C227.34603273 237.11059317 227.34603273 237.11059317 225.69573116 239.08307648 Z " fill="#000000" transform="translate(237.32275390625,-0.224609375)"/>
<path d="M0 0 C0.680625 0.51691406 1.36125 1.03382813 2.0625 1.56640625 C20.74550741 16.59568035 31.37574411 40.60528094 34 64 C34.31127312 69.09952912 34.33030061 74.20211645 34.31567383 79.30957031 C34.31249489 81.6287259 34.33613223 83.94662421 34.36132812 86.265625 C34.41369283 98.35096297 33.08265125 108.52924125 25 118 C16.75845058 125.8599962 8.34143014 128.98416001 -3 129 C-12.61543513 128.20830998 -20.61920525 124.26701624 -27 117 C-27.86625 116.071875 -28.7325 115.14375 -29.625 114.1875 C-35.17327892 106.74112566 -36.09677006 98.64006889 -36.17578125 89.51171875 C-36.19898256 88.06834484 -36.22310003 86.62498542 -36.24804688 85.18164062 C-36.28304427 82.93715706 -36.31246576 80.69320884 -36.32592773 78.44848633 C-36.40650895 67.17579446 -37.3945997 58.15741738 -45.28515625 49.50390625 C-52.0163304 43.60071252 -59.69866273 42.64734448 -68.34765625 42.71875 C-76.11933257 43.31721064 -82.59663438 46.35102685 -88 52 C-94.59102507 61.53760098 -96.16846407 69.47417963 -95 81 C-92.48088166 89.10579775 -88.12596789 95.38864378 -81 100 C-73.09360885 103.83005193 -65.80706362 104.53115573 -57.125 104.5 C-45.90870131 104.46059848 -45.90870131 104.46059848 -41.828125 106.8828125 C-38.93062705 110.23846183 -37.93929144 112.54299467 -38.125 117 C-39.14113475 120.48389056 -40.48126871 122.40718838 -43 125 C-56.80921562 129.60307187 -76.8565832 126.76383824 -89.6875 120.375 C-102.05991509 113.06320884 -112.09181269 102.01892066 -116 88 C-119.71463989 70.8895603 -116.88930428 56.00226925 -107.60546875 41.30859375 C-100.96497674 31.75985707 -89.32992509 24.26838334 -78.015625 21.40234375 C-61.51621738 19.20099792 -46.7276592 21.01202461 -33 31 C-23.71678402 38.51418208 -17.23380041 49.2560614 -15 61 C-14.5299937 67.4941863 -14.52044816 73.98629312 -14.48876953 80.49487305 C-14.47298481 82.74036993 -14.43999321 84.98518113 -14.40625 87.23046875 C-14.40927124 87.9066777 -14.41229248 88.58288666 -14.41540527 89.27958679 C-14.32153079 95.29489334 -12.94525208 100.00217354 -8.6875 104.375 C-5.56062726 106.26566724 -3.66004463 106.92679911 0 107 C4.9368987 105.32647502 8.28648522 103.73139726 11.05541992 99.31762695 C12.9722136 94.61457127 12.33152528 89.28840834 12.31567383 84.27758789 C12.3125676 82.23201415 12.33578865 80.18796734 12.36132812 78.14257812 C12.46725145 56.28585359 6.03559052 37.21432206 -9.3125 21.1875 C-23.93651718 7.16861456 -42.67199572 0.00507303 -62.87060547 -0.0703125 C-83.91976959 0.62472984 -101.42145341 10.22218931 -115.97265625 25.00390625 C-129.1729628 39.36467931 -134.56158962 57.94678413 -134.25 77.16796875 C-133.20812326 93.13798572 -127.51142896 107.25688861 -118 120 C-117.45601562 120.72960937 -116.91203125 121.45921875 -116.3515625 122.2109375 C-104.60255715 136.71092946 -86.09245588 145.43529257 -67.78759766 147.52294922 C-61.36601787 148.14903955 -54.94746015 148.1363182 -48.50220299 148.13809967 C-44.73250226 148.14247056 -40.96296409 148.17354038 -37.19335938 148.19921875 C-32.42239005 148.22962766 -27.65169082 148.25230676 -22.88061523 148.25048828 C-18.9978689 148.24970116 -15.11591636 148.27304143 -11.23337746 148.3123703 C-9.76106142 148.3228111 -8.28865361 148.3243684 -6.81632042 148.31671906 C-4.76037637 148.30708911 -2.70684871 148.32827856 -0.65112305 148.35644531 C1.09899834 148.36191376 1.09899834 148.36191376 2.88447571 148.36749268 C6.93803527 149.19043799 8.42473986 150.83375507 11 154 C12.33359091 157.83407387 12.06728273 159.75189492 11 163.6875 C8.57584766 167.70250232 6.41462094 168.90549513 2 170 C-2.51699214 170.42075712 -7.00922947 170.39649087 -11.54296875 170.36328125 C-12.86178543 170.36377975 -14.18060211 170.36427826 -15.53938293 170.36479187 C-18.33260574 170.36470238 -21.12553865 170.35433815 -23.91870117 170.33618164 C-27.43617697 170.31377862 -30.95322385 170.31309263 -34.47075081 170.31942749 C-66.30188414 170.36298274 -97.04860213 169.26432425 -122 147 C-122.80566406 146.34773437 -123.61132812 145.69546875 -124.44140625 145.0234375 C-142.58245845 129.86330937 -153.79482695 106.39634822 -156 83 C-157.92800508 55.03727808 -149.73674149 30.22578642 -131.52905273 8.84619141 C-114.9758871 -9.754303 -90.88228275 -20.39919791 -66.1796875 -21.90966797 C-41.62102082 -22.92744425 -19.13840027 -15.39256206 0 0 Z " fill="#000000" transform="translate(317,137)"/>
<path d="M0 0 C3.125 1.875 3.125 1.875 5 5 C5.98876625 10.02622846 5.7769173 13.70513784 3.125 18.125 C-1.29486216 20.7769173 -4.97377154 20.98876625 -10 20 C-13.125 18.125 -13.125 18.125 -15 15 C-15.98876625 9.97377154 -15.7769173 6.29486216 -13.125 1.875 C-8.70513784 -0.7769173 -5.02622846 -0.98876625 0 0 Z " fill="#000000" transform="translate(261,492)"/>
</svg>
